<svg width="112" height="32" viewBox="0 0 112 32" fill="none" xmlns="http://www.w3.org/2000/svg">
<path d="M101.192 21.415H102.262V21.5727H101.82V22.7908H101.634V21.5727H101.192V21.415H101.192Z" fill="white"/>
<path d="M101.634 22.7908H101.82V21.5727H102.262V21.415H101.192V21.5727H101.634V22.7908Z" fill="white"/>
<path d="M102.433 21.415H102.69L103.09 22.5897L103.477 21.415H103.702V22.7908H103.547V21.6729L103.176 22.7908H102.991L102.62 21.6729V22.7908H102.434V21.415H102.433Z" fill="white"/>
<path d="M102.62 21.6729L102.991 22.7908H103.176L103.547 21.6729V22.7908H103.701V21.415H103.477L103.09 22.5897L102.69 21.415H102.433V22.7908H102.62V21.6729Z" fill="white"/>
<path d="M71.9538 19.4948V13.8056C71.9538 12.645 72.4966 11.8139 73.6542 11.8139H80.7947C80.8384 11.8139 80.8804 11.7706 80.8804 11.7277V10.5958C80.8804 10.5859 80.8776 10.5762 80.8738 10.5669H72.143C70.2506 10.807 69.3262 12.1233 69.3262 13.8056V19.4946C69.3262 20.6552 68.7682 21.4865 67.626 21.4865H60.0852C60.0424 21.4865 59.9994 21.5152 59.9994 21.5725V22.7047C59.9994 22.7515 60.0283 22.7874 60.0622 22.7994H68.6237C70.8552 22.7409 71.9538 21.3191 71.9538 19.4948Z" fill="white"/>
<path d="M42.618 22.7996H45.1251C45.1589 22.7876 45.1878 22.7517 45.1878 22.7048V19.0791C45.1878 17.9185 45.8447 17.1159 46.8016 17.1159H57.1283C59.4565 17.1159 60.585 15.6829 60.585 13.8056C60.585 12.1233 59.6613 10.807 57.7679 10.5669H42.5716C42.5712 10.5677 42.5709 10.5684 42.5705 10.5691C42.5695 10.5711 42.5683 10.5731 42.5672 10.575C42.5635 10.5812 42.5598 10.5874 42.5598 10.5958V11.7277C42.5598 11.785 42.5883 11.8139 42.6454 11.8139H56.257C57.414 11.8139 57.9567 12.645 57.9567 13.8056C57.9567 14.9664 57.414 15.7975 56.257 15.7975H45.4877C43.8167 15.7975 42.5598 17.2165 42.5598 19.0791V22.7048C42.5596 22.7517 42.5798 22.7874 42.618 22.7996Z" fill="white"/>
<path d="M80.8386 21.4867H94.5502C94.5923 21.4867 94.6208 21.5154 94.6208 21.544V22.7048C94.6208 22.7622 94.6645 22.7908 94.7066 22.7908H97.1781C97.2218 22.7908 97.2635 22.7622 97.2635 22.7048V21.5727C97.2635 21.5296 97.3072 21.4867 97.3492 21.4867H99.8055C99.8628 21.4867 99.8913 21.4436 99.8913 21.4009V20.2544C99.8913 20.2113 99.8628 20.1684 99.8055 20.1684H97.3492C97.3072 20.1684 97.2635 20.1253 97.2635 20.0824V11.8139C97.2635 11.1392 97.0122 10.7094 96.5899 10.5669H95.8748C95.6519 10.624 95.4096 10.7263 95.1499 10.8822L80.3816 19.982C79.8103 20.3402 79.6101 20.7412 79.7531 21.0422C79.8672 21.3003 80.1949 21.4867 80.8386 21.4867ZM82.9806 19.9678L94.4209 12.9029C94.4388 12.8888 94.4609 12.8789 94.4842 12.8746C94.493 12.873 94.5021 12.8721 94.511 12.8721C94.574 12.8721 94.636 12.9138 94.636 13.0176V20.0824C94.636 20.1255 94.5923 20.1684 94.5502 20.1684H83.0513C82.9854 20.1684 82.9439 20.1558 82.9196 20.1389C82.9073 20.1304 82.8994 20.1207 82.895 20.1111C82.8879 20.0849 82.8901 20.0617 82.9014 20.0401C82.9018 20.0392 82.9023 20.0383 82.9028 20.0374C82.9035 20.0363 82.9041 20.0352 82.9048 20.0341C82.9191 20.0108 82.9443 19.9893 82.9806 19.9678Z" fill="white"/>
<path fill-rule="evenodd" clip-rule="evenodd" d="M94.4207 12.9029C94.4386 12.8887 94.4608 12.8789 94.4842 12.8746C94.4609 12.8789 94.4388 12.8888 94.4209 12.9029L82.9806 19.9678L94.4207 12.9029ZM82.8948 20.1111C82.8878 20.0849 82.89 20.0617 82.9014 20.0401C82.8901 20.0617 82.8879 20.0849 82.895 20.1111C82.8994 20.1207 82.9073 20.1304 82.9196 20.1389C82.9072 20.1303 82.8993 20.1207 82.8948 20.1111Z" fill="white"/>
<path d="M17.756 6C17.8139 6.01076 17.8716 6.02176 17.9294 6.03299C18.9837 6.23803 20.0217 6.51936 21.0548 6.81195C21.6782 6.99264 22.2999 7.17959 22.9176 7.37869C23.8878 7.68711 24.8539 8.03634 25.7327 8.55714C26.1264 8.79572 26.5045 9.06523 26.8276 9.39396C27.1777 9.73541 27.4643 10.1404 27.6746 10.5811C28.0578 11.3798 28.189 12.2721 28.2278 13.1493C28.2461 13.7217 28.2449 14.2991 28.1379 14.8641C28.0489 15.3551 27.8906 15.8393 27.6274 16.2658C27.395 16.6425 27.0719 16.9682 26.6798 17.1781C26.3036 17.3805 25.8729 17.4769 25.4463 17.4683C24.7993 17.4752 24.1716 17.2692 23.591 16.9995C23.5845 15.8083 23.5855 14.6168 23.5864 13.4255C23.587 12.6897 23.5876 11.954 23.5864 11.2183C23.5854 11.1385 23.586 11.0585 23.5865 10.9784C23.5882 10.7088 23.5899 10.4386 23.5356 10.1735C23.4862 9.90698 23.3772 9.63842 23.1676 9.45754C23.0286 9.33247 22.8485 9.26186 22.6675 9.22371C22.4843 9.18898 22.289 9.26661 22.1757 9.41332C21.9872 9.64829 21.9378 9.96032 21.9292 10.2528C21.9286 12.4164 21.9288 14.5801 21.929 16.7437C21.9294 19.739 21.9297 22.7342 21.9277 25.7293C20.5371 25.2895 19.1464 24.8494 17.7562 24.4083C17.7547 18.2831 17.7553 12.1581 17.756 6.03299C17.756 6.02199 17.756 6.011 17.756 6Z" fill="white"/>
<path d="M11.5057 19.0548C12.2774 18.7822 13.0487 18.5085 13.82 18.2347L13.8209 18.2344C14.8614 17.8651 15.902 17.4958 16.9434 17.1292C16.9451 17.547 16.9448 17.965 16.9445 18.383C16.9443 18.6757 16.9441 18.9684 16.9445 19.2612C16.9442 19.2888 16.9445 19.3165 16.9448 19.3442C16.9455 19.413 16.9462 19.4819 16.9375 19.5502C16.057 19.8617 15.1777 20.1765 14.2983 20.4914L14.2979 20.4915L14.2975 20.4916L14.2971 20.4918C13.7452 20.6894 13.1932 20.887 12.6411 21.0838C12.4425 21.1586 12.2388 21.2434 12.0858 21.3947C12.0144 21.4657 11.9564 21.5704 11.9954 21.6722C12.0445 21.7919 12.167 21.857 12.2799 21.9064C12.5941 22.0339 12.9376 22.0519 13.2723 22.0673C13.6454 22.0614 14.02 22.0335 14.3855 21.9531C14.6326 21.9047 14.8703 21.8215 15.1057 21.7333C15.2597 21.6776 15.4137 21.6219 15.5676 21.5662C16.0257 21.4005 16.4839 21.2347 16.9426 21.0709C16.9455 21.4486 16.9451 21.8264 16.9446 22.2043C16.9444 22.4277 16.9441 22.6511 16.9445 22.8745C16.9439 22.9135 16.9443 22.9526 16.9447 22.9916C16.9454 23.073 16.9462 23.1544 16.9381 23.2353C16.1854 23.3703 15.4237 23.462 14.6586 23.4739C13.118 23.5086 11.5738 23.2706 10.1104 22.7901C9.63041 22.6513 9.15345 22.4667 8.75275 22.1624C8.53215 21.992 8.33475 21.7777 8.23433 21.5141C8.15028 21.2909 8.15636 21.0329 8.26115 20.8175C8.36213 20.6026 8.53861 20.4328 8.73297 20.3009C9.18274 19.9909 9.67871 19.7546 10.1813 19.5438C10.4848 19.4145 10.7962 19.3053 11.1075 19.1962C11.2405 19.1496 11.3734 19.103 11.5057 19.0548Z" fill="white"/>
<path d="M26.0927 18.2457C26.4666 18.2026 26.8426 18.1894 27.2184 18.1763C27.2559 18.175 27.2934 18.1736 27.331 18.1723C28.6909 18.1774 30.0577 18.3463 31.3585 18.7535C31.4962 18.7952 31.6316 18.8436 31.767 18.8921C31.8825 18.9334 31.9981 18.9747 32.1152 19.012C32.5684 19.1773 33.0221 19.3777 33.385 19.7028C33.6031 19.9013 33.791 20.1688 33.7937 20.4742C33.8066 20.7226 33.6938 20.961 33.5324 21.1443C33.225 21.4882 32.8188 21.7245 32.4109 21.9307C32.0845 22.0968 31.7396 22.2186 31.3951 22.3403C31.2814 22.3804 31.1677 22.4206 31.0548 22.4623C30.4816 22.6677 29.9083 22.8731 29.3351 23.0785C27.1294 23.8689 24.9238 24.6593 22.7184 25.4507C22.7183 25.14 22.7184 24.8293 22.7185 24.5187C22.7186 24.0526 22.7188 23.5866 22.7181 23.1207C22.7187 23.1162 22.7188 23.1112 22.7188 23.1059C22.7188 23.1019 22.7186 23.0977 22.7185 23.0935C22.7175 23.065 22.7164 23.0336 22.7491 23.0275C24.6512 22.352 26.5529 21.6749 28.4546 20.9977C28.6668 20.9221 28.879 20.8466 29.0912 20.771C29.1514 20.7485 29.2126 20.7274 29.2739 20.7062C29.5038 20.6266 29.736 20.5463 29.9276 20.3935C30.0269 20.3157 30.1241 20.1919 30.0754 20.0585C30.0246 19.9418 29.9033 19.8771 29.7916 19.8288C29.4752 19.7038 29.1306 19.6795 28.794 19.6702C28.267 19.6738 27.7353 19.7387 27.2342 19.9072C26.5646 20.1414 25.8956 20.3768 25.2266 20.6122L25.2264 20.6123L25.2262 20.6124L25.226 20.6125C24.3904 20.9065 23.5549 21.2005 22.7184 21.492C22.7185 21.193 22.7185 20.894 22.7185 20.595C22.7185 20.5907 22.7185 20.5865 22.7185 20.5822C22.7184 20.0516 22.7183 19.521 22.7188 18.9903C23.8087 18.6086 24.9467 18.3773 26.0927 18.2457Z" fill="white"/>
<path d="M32.2702 23.9921C32.599 23.9511 32.9424 24.0982 33.1395 24.3643C33.3546 24.6387 33.3939 25.0346 33.242 25.3482C33.0887 25.6735 32.738 25.9014 32.375 25.8895C32.0408 25.8969 31.7171 25.7027 31.5526 25.4152C31.4039 25.1618 31.3862 24.8374 31.5013 24.5679C31.6306 24.2568 31.9353 24.0296 32.2702 23.9921ZM32.1987 24.1672C32.0146 24.209 31.8474 24.3204 31.7375 24.4736C31.6053 24.6537 31.5553 24.8921 31.6055 25.1102C31.6477 25.3127 31.7761 25.4935 31.9494 25.6057C32.2162 25.7807 32.5902 25.771 32.8455 25.5788C33.1089 25.3931 33.234 25.0365 33.1435 24.7277C33.0876 24.5189 32.9381 24.3413 32.7498 24.2378C32.5824 24.149 32.3828 24.1234 32.1987 24.1672Z" fill="white"/>
<path d="M31.9708 24.3906C32.0737 24.3901 32.1767 24.3901 32.2797 24.3902C32.3484 24.3902 32.417 24.3902 32.4856 24.3901C32.5826 24.3914 32.6895 24.414 32.7582 24.4882C32.8274 24.5662 32.8329 24.6795 32.8139 24.7772C32.8058 24.8264 32.7707 24.8603 32.7363 24.8936C32.7255 24.904 32.7148 24.9143 32.7049 24.9251C32.7107 24.9302 32.7167 24.9352 32.7227 24.9402L32.7229 24.9404C32.7547 24.967 32.7881 24.9949 32.7953 25.0382C32.8039 25.0812 32.8048 25.1253 32.8057 25.1692C32.8068 25.2262 32.808 25.2831 32.8259 25.3377C32.826 25.338 32.8262 25.3382 32.8263 25.3385C32.8461 25.3724 32.8662 25.4067 32.8677 25.4474C32.8274 25.4485 32.7871 25.4485 32.7469 25.4486C32.7161 25.4486 32.6853 25.4486 32.6545 25.4491C32.6277 25.386 32.6271 25.3185 32.6265 25.251C32.6261 25.198 32.6256 25.145 32.6125 25.094C32.6007 25.0468 32.5516 25.0173 32.5049 25.0189C32.4238 25.0154 32.3426 25.016 32.2615 25.0167C32.2266 25.0169 32.1917 25.0172 32.1568 25.0172C32.1562 25.069 32.1566 25.1209 32.157 25.1728C32.1576 25.265 32.1583 25.3572 32.1534 25.4491C32.0929 25.4482 32.0323 25.4482 31.9718 25.4493C31.9696 25.1982 31.9701 24.9476 31.9705 24.6969C31.9707 24.5948 31.9708 24.4927 31.9708 24.3906ZM32.1568 24.5584C32.157 24.6558 32.157 24.7531 32.1568 24.8509C32.1672 24.8509 32.1775 24.851 32.1879 24.8511C32.2812 24.8516 32.3747 24.8521 32.4683 24.8513C32.5199 24.8509 32.5798 24.8412 32.6133 24.7976C32.6484 24.7419 32.6477 24.6679 32.6159 24.6114C32.5893 24.5668 32.5328 24.5624 32.4864 24.5596C32.404 24.5571 32.3215 24.5576 32.2391 24.5581C32.2117 24.5582 32.1842 24.5584 32.1568 24.5584Z" fill="white"/>
<path fill-rule="evenodd" clip-rule="evenodd" d="M17.756 6.03299H17.9294C18.9837 6.23803 20.0217 6.51936 21.0548 6.81195C21.6782 6.99264 22.2999 7.17959 22.9176 7.37869C23.8878 7.68711 24.8539 8.03634 25.7327 8.55714C26.1264 8.79572 26.5045 9.06523 26.8276 9.39396C27.1777 9.73541 27.4643 10.1404 27.6746 10.5811C28.0578 11.3798 28.189 12.2721 28.2278 13.1493C28.2461 13.7217 28.2449 14.2991 28.1379 14.8641C28.0489 15.3551 27.8906 15.8393 27.6274 16.2658C27.395 16.6425 27.0719 16.9682 26.6798 17.1781C26.3036 17.3805 25.8729 17.4769 25.4463 17.4683C24.7993 17.4752 24.1716 17.2692 23.591 16.9995C23.5845 15.8083 23.5855 14.6168 23.5864 13.4255C23.587 12.6897 23.5876 11.954 23.5864 11.2183C23.5854 11.1385 23.586 11.0585 23.5865 10.9784C23.5882 10.7088 23.5899 10.4386 23.5356 10.1735C23.4862 9.90698 23.3772 9.63842 23.1676 9.45754C23.0286 9.33247 22.8485 9.26186 22.6675 9.22371C22.4843 9.18898 22.289 9.26661 22.1757 9.41332C21.9872 9.64829 21.9378 9.96032 21.9292 10.2528C21.9286 12.4164 21.9288 14.5801 21.929 16.7437C21.9294 19.739 21.9297 22.7342 21.9277 25.7293C20.5371 25.2895 19.1464 24.8494 17.7562 24.4083C17.7547 18.2831 17.7553 12.1581 17.756 6.03299ZM101.192 21.415H101.192H102.262V21.5727H101.82V22.7908H101.634H101.634V21.5727H101.192H101.192V21.415ZM102.433 21.415H102.434H102.69L103.09 22.5897L103.477 21.415H103.701H103.702V22.7908H103.701H103.547V21.6729L103.176 22.7908H102.991L102.62 21.6729V22.7908H102.434H102.433V21.415ZM71.9538 13.8056V19.4948C71.9538 21.3191 70.8552 22.7409 68.6237 22.7994H60.0622C60.0283 22.7874 59.9994 22.7515 59.9994 22.7047V21.5725C59.9994 21.5152 60.0424 21.4865 60.0852 21.4865H67.626C68.7682 21.4865 69.3262 20.6552 69.3262 19.4946V13.8056C69.3262 12.1233 70.2506 10.807 72.143 10.5669H80.8738C80.8776 10.5762 80.8804 10.5859 80.8804 10.5958V11.7277C80.8804 11.7706 80.8384 11.8139 80.7947 11.8139H73.6542C72.4966 11.8139 71.9538 12.645 71.9538 13.8056ZM45.1251 22.7996H42.618C42.5798 22.7874 42.5596 22.7517 42.5598 22.7048V19.0791C42.5598 17.2165 43.8167 15.7975 45.4877 15.7975H56.257C57.414 15.7975 57.9567 14.9664 57.9567 13.8056C57.9567 12.645 57.414 11.8139 56.257 11.8139H42.6454C42.5883 11.8139 42.5598 11.785 42.5598 11.7277V10.5958C42.5598 10.5874 42.5635 10.5812 42.5672 10.575C42.5683 10.5731 42.5695 10.5711 42.5705 10.5691C42.5709 10.5684 42.5712 10.5677 42.5716 10.5669H57.7679C59.6613 10.807 60.585 12.1233 60.585 13.8056C60.585 15.6829 59.4565 17.1159 57.1283 17.1159H46.8016C45.8447 17.1159 45.1878 17.9185 45.1878 19.0791V22.7048C45.1878 22.7517 45.1589 22.7876 45.1251 22.7996ZM94.5502 21.4867H80.8386C80.1949 21.4867 79.8672 21.3003 79.7531 21.0422C79.6101 20.7412 79.8103 20.3402 80.3816 19.982L95.1499 10.8822C95.4096 10.7263 95.6519 10.624 95.8748 10.5669H96.5899C97.0122 10.7094 97.2635 11.1392 97.2635 11.8139V20.0824C97.2635 20.1253 97.3072 20.1684 97.3492 20.1684H99.8055C99.8628 20.1684 99.8913 20.2113 99.8913 20.2544V21.4009C99.8913 21.4436 99.8628 21.4867 99.8055 21.4867H97.3492C97.3072 21.4867 97.2635 21.5296 97.2635 21.5727V22.7048C97.2635 22.7622 97.2218 22.7908 97.1781 22.7908H94.7066C94.6645 22.7908 94.6208 22.7622 94.6208 22.7048V21.544C94.6208 21.5154 94.5923 21.4867 94.5502 21.4867ZM13.8209 18.2344L13.82 18.2347C13.0487 18.5085 12.2774 18.7822 11.5057 19.0548C11.3734 19.103 11.2405 19.1496 11.1075 19.1962C10.7962 19.3053 10.4848 19.4145 10.1813 19.5438C9.67871 19.7546 9.18274 19.9909 8.73297 20.3009C8.53861 20.4328 8.36213 20.6026 8.26115 20.8175C8.15636 21.0329 8.15028 21.2909 8.23433 21.5141C8.33475 21.7777 8.53215 21.992 8.75275 22.1624C9.15345 22.4667 9.63041 22.6513 10.1104 22.7901C11.5738 23.2706 13.118 23.5086 14.6586 23.4739C15.4237 23.462 16.1854 23.3703 16.9381 23.2353C16.9462 23.1544 16.9454 23.073 16.9447 22.9916C16.9443 22.9526 16.9439 22.9135 16.9445 22.8745C16.9441 22.6511 16.9444 22.4277 16.9446 22.2043C16.9451 21.8264 16.9455 21.4486 16.9426 21.0709C16.4839 21.2347 16.0257 21.4005 15.5676 21.5662C15.4137 21.6219 15.2597 21.6776 15.1057 21.7333C14.8703 21.8215 14.6326 21.9047 14.3855 21.9531C14.02 22.0335 13.6454 22.0614 13.2723 22.0673C12.9376 22.0519 12.5941 22.0339 12.2799 21.9064C12.167 21.857 12.0445 21.7919 11.9954 21.6722C11.9564 21.5704 12.0144 21.4657 12.0858 21.3947C12.2388 21.2434 12.4425 21.1586 12.6411 21.0838C13.1932 20.887 13.7452 20.6894 14.2971 20.4918L14.2975 20.4916L14.2979 20.4915L14.2983 20.4914C15.1777 20.1765 16.057 19.8617 16.9375 19.5502C16.9462 19.4819 16.9455 19.413 16.9448 19.3442C16.9445 19.3165 16.9442 19.2888 16.9445 19.2612C16.9441 18.9684 16.9443 18.6757 16.9445 18.383C16.9448 17.965 16.9451 17.547 16.9434 17.1292C15.902 17.4958 14.8614 17.8651 13.8209 18.2344ZM27.331 18.1723C27.2934 18.1736 27.2559 18.175 27.2184 18.1763C26.8426 18.1894 26.4666 18.2026 26.0927 18.2457C24.9467 18.3773 23.8087 18.6086 22.7188 18.9903C22.7183 19.521 22.7184 20.0516 22.7185 20.5822V20.595C22.7185 20.894 22.7185 21.193 22.7184 21.492C23.5549 21.2005 24.3904 20.9065 25.226 20.6125L25.2262 20.6124L25.2264 20.6123L25.2266 20.6122C25.8956 20.3768 26.5646 20.1414 27.2342 19.9072C27.7353 19.7387 28.267 19.6738 28.794 19.6702C29.1306 19.6795 29.4752 19.7038 29.7916 19.8288C29.9033 19.8771 30.0246 19.9418 30.0754 20.0585C30.1241 20.1919 30.0269 20.3157 29.9276 20.3935C29.736 20.5463 29.5038 20.6266 29.2739 20.7062C29.2126 20.7274 29.1514 20.7485 29.0912 20.771L28.4546 20.9977C26.5529 21.6749 24.6512 22.352 22.7491 23.0275C22.7164 23.0336 22.7175 23.065 22.7185 23.0935C22.7186 23.0977 22.7188 23.1019 22.7188 23.1059C22.7188 23.1112 22.7187 23.1162 22.7181 23.1207C22.7188 23.5866 22.7186 24.0526 22.7185 24.5187C22.7184 24.8293 22.7183 25.14 22.7184 25.4507C24.9238 24.6593 27.1294 23.8689 29.3351 23.0785L31.0548 22.4623C31.1677 22.4206 31.2814 22.3804 31.3951 22.3403C31.7396 22.2186 32.0845 22.0968 32.4109 21.9307C32.8188 21.7245 33.225 21.4882 33.5324 21.1443C33.6938 20.961 33.8066 20.7226 33.7937 20.4742C33.791 20.1688 33.6031 19.9013 33.385 19.7028C33.0221 19.3777 32.5684 19.1773 32.1152 19.012C31.9981 18.9747 31.8825 18.9334 31.767 18.8921C31.6316 18.8436 31.4962 18.7952 31.3585 18.7535C30.0577 18.3463 28.6909 18.1774 27.331 18.1723ZM33.1395 24.3643C32.9424 24.0982 32.599 23.9511 32.2702 23.9921C31.9353 24.0296 31.6306 24.2568 31.5013 24.5679C31.3862 24.8374 31.4039 25.1618 31.5526 25.4152C31.7171 25.7027 32.0408 25.8969 32.375 25.8895C32.738 25.9014 33.0887 25.6735 33.242 25.3482C33.3939 25.0346 33.3546 24.6387 33.1395 24.3643ZM94.55 20.1682H83.0511C82.9854 20.1682 82.9439 20.1557 82.9196 20.1389C82.9073 20.1304 82.8994 20.1207 82.895 20.1111C82.8879 20.0849 82.8901 20.0617 82.9014 20.0401L82.9028 20.0374C82.9035 20.0363 82.9041 20.0352 82.9048 20.0341C82.9191 20.0108 82.9443 19.9893 82.9806 19.9678L94.4209 12.9029C94.4388 12.8888 94.4609 12.8789 94.4842 12.8746C94.493 12.873 94.5021 12.8721 94.511 12.8721C94.5739 12.8722 94.6358 12.9139 94.6358 13.0176V20.0822C94.6358 20.1251 94.5921 20.1682 94.55 20.1682ZM32.1987 24.1672C32.0146 24.209 31.8474 24.3204 31.7375 24.4736C31.6053 24.6537 31.5553 24.8921 31.6055 25.1102C31.6477 25.3127 31.7761 25.4935 31.9494 25.6057C32.2162 25.7807 32.5902 25.771 32.8455 25.5788C33.1089 25.3931 33.234 25.0365 33.1435 24.7277C33.0876 24.5189 32.9381 24.3413 32.7498 24.2378C32.5824 24.149 32.3828 24.1234 32.1987 24.1672ZM32.4856 24.3901C32.417 24.3902 32.3484 24.3902 32.2797 24.3902C32.1767 24.3901 32.0737 24.3901 31.9708 24.3906C31.9708 24.4927 31.9707 24.5948 31.9705 24.6969C31.9701 24.9476 31.9696 25.1982 31.9718 25.4493C32.0323 25.4482 32.0929 25.4482 32.1534 25.4491C32.1583 25.3572 32.1576 25.265 32.157 25.1728C32.1566 25.1209 32.1562 25.069 32.1568 25.0172C32.1917 25.0172 32.2266 25.0169 32.2615 25.0167C32.3426 25.016 32.4238 25.0154 32.5049 25.0189C32.5516 25.0173 32.6007 25.0468 32.6125 25.094C32.6256 25.145 32.6261 25.198 32.6265 25.251C32.6271 25.3185 32.6277 25.386 32.6545 25.4491C32.6853 25.4486 32.7161 25.4486 32.7469 25.4486C32.7871 25.4485 32.8274 25.4485 32.8677 25.4474C32.8662 25.4067 32.8461 25.3724 32.8263 25.3385L32.8259 25.3377C32.808 25.2831 32.8068 25.2262 32.8057 25.1692C32.8048 25.1253 32.8039 25.0812 32.7953 25.0382C32.7881 24.9949 32.7547 24.967 32.7229 24.9404L32.7227 24.9402C32.7167 24.9352 32.7107 24.9302 32.7049 24.9251C32.7148 24.9143 32.7255 24.904 32.7363 24.8936C32.7707 24.8603 32.8058 24.8264 32.8139 24.7772C32.8329 24.6795 32.8274 24.5662 32.7582 24.4882C32.6895 24.414 32.5826 24.3914 32.4856 24.3901ZM32.1568 24.8509C32.157 24.7531 32.157 24.6558 32.1568 24.5584C32.1842 24.5584 32.2117 24.5582 32.2391 24.5581C32.3215 24.5576 32.404 24.5571 32.4864 24.5596C32.5328 24.5624 32.5893 24.5668 32.6159 24.6114C32.6477 24.6679 32.6484 24.7419 32.6133 24.7976C32.5798 24.8412 32.5199 24.8509 32.4683 24.8513C32.3747 24.8521 32.2812 24.8516 32.1879 24.8511L32.1568 24.8509Z" fill="white"/>
</svg>
