<svg width="112" height="32" viewBox="0 0 112 32" fill="none" xmlns="http://www.w3.org/2000/svg">
<path fill-rule="evenodd" clip-rule="evenodd" d="M10.0255 22.9759C7.90145 22.398 7.54079 21.205 8.51167 20.5176C9.40944 19.8803 10.9359 19.4045 10.9359 19.4045L17.2399 17.2616V19.7032L12.7032 21.2551C11.901 21.5334 11.7782 21.9193 12.4303 22.1224C13.0824 22.3256 14.2609 22.2681 15.0622 21.9935L17.2379 21.2384V23.423C17.1005 23.4471 16.9455 23.4703 16.8041 23.4926C14.5339 23.8449 12.2078 23.6676 10.0255 22.9759ZM23.3254 23.2301L30.3994 20.8275C31.2026 20.5492 31.3254 20.1651 30.6733 19.962C30.0212 19.7588 28.8427 19.8163 28.0414 20.0918L23.3274 21.6744V19.1521L23.6003 19.064C24.6654 18.7361 25.7633 18.5144 26.8765 18.4026C28.792 18.2013 31.1373 18.4304 32.9777 19.0946C35.053 19.7199 35.287 20.641 34.7596 21.2755C34.2322 21.91 32.9397 22.3618 32.9397 22.3618L23.3274 25.654L23.3254 23.2301ZM24.153 7.59276C27.8776 8.81633 29.14 10.3395 29.14 13.7718C29.14 17.116 26.9818 18.384 24.2407 17.1178V10.8813C24.2407 10.1503 24.1004 9.47681 23.3829 9.28571C22.8332 9.11688 22.492 9.60575 22.492 10.3367V25.9443L18.0938 24.6085V6C19.9644 6.3321 22.6889 7.11317 24.153 7.58905V7.59276ZM33.6084 24.6753C33.6116 24.6998 33.6085 24.7247 33.5993 24.7478C33.5901 24.771 33.5752 24.7916 33.5557 24.808C33.5076 24.8363 33.4514 24.8499 33.3949 24.8469H33.0567V24.5139H33.4154C33.4555 24.5124 33.4954 24.5194 33.5324 24.5343C33.5583 24.548 33.5794 24.5687 33.593 24.5938C33.6065 24.6189 33.6119 24.6473 33.6084 24.6753ZM33.8511 25.4341C33.8415 25.4285 33.8332 25.421 33.827 25.412C33.8208 25.403 33.8167 25.3928 33.815 25.3822C33.8079 25.3517 33.8046 25.3206 33.8053 25.2894L33.7985 25.1382C33.8012 25.083 33.7863 25.0283 33.7556 24.9814C33.735 24.9583 33.7103 24.9388 33.6825 24.9239C33.719 24.9013 33.7505 24.872 33.7751 24.8377C33.8085 24.7832 33.8251 24.7208 33.8228 24.6577C33.8276 24.5977 33.8129 24.5377 33.7807 24.4859C33.7484 24.4341 33.7002 24.3931 33.6425 24.3683C33.5694 24.3395 33.4906 24.3259 33.4115 24.3284H32.8451V25.5065H33.0567V25.0232H33.39C33.4341 25.0208 33.4783 25.0272 33.5197 25.0417C33.5425 25.0542 33.5612 25.0726 33.5735 25.0948C33.5857 25.1169 33.5911 25.142 33.5889 25.167L33.5986 25.3525C33.5991 25.3836 33.602 25.4146 33.6074 25.4453C33.6104 25.4607 33.6156 25.4757 33.623 25.4898L33.6308 25.5037H33.8667V25.4351L33.8511 25.4341ZM32.3997 24.9425C32.3989 24.7096 32.4949 24.4858 32.6667 24.32C32.7506 24.2382 32.8508 24.1731 32.9614 24.1287C33.0721 24.0843 33.191 24.0614 33.3111 24.0614C33.4312 24.0614 33.5501 24.0843 33.6607 24.1287C33.7714 24.1731 33.8716 24.2382 33.9554 24.32C34.0825 24.4431 34.1689 24.599 34.2039 24.7683C34.239 24.9376 34.2211 25.113 34.1526 25.2727C34.084 25.4325 33.9678 25.5697 33.8183 25.6673C33.6687 25.7648 33.4924 25.8186 33.3111 25.8219C33.191 25.822 33.0722 25.7992 32.9615 25.7549C32.8509 25.7106 32.7506 25.6457 32.6667 25.564C32.4951 25.3984 32.3991 25.1751 32.3997 24.9425ZM33.3111 26C33.4554 26.0002 33.5983 25.9728 33.7312 25.9194C33.8642 25.866 33.9845 25.7877 34.0851 25.6892C34.2906 25.4895 34.4057 25.2211 34.4057 24.9416C34.4057 24.662 34.2906 24.3936 34.0851 24.1939C33.9843 24.0957 33.8639 24.0177 33.731 23.9645C33.5981 23.9112 33.4553 23.8839 33.3111 23.884C33.0931 23.888 32.8812 23.9526 32.7014 24.0699C32.5217 24.1872 32.382 24.3521 32.2996 24.5442C32.2173 24.7362 32.1959 24.9471 32.2381 25.1506C32.2803 25.3541 32.3842 25.5413 32.5371 25.6892C32.6377 25.7877 32.758 25.866 32.8909 25.9194C33.0239 25.9728 33.1668 26.0002 33.3111 26Z" fill="white"/>
<path d="M101.848 22.0679H101.663V20.8492H101.238V20.6787H102.275V20.8492H101.85L101.848 22.0679ZM103.134 21.7454L103.531 20.6787H103.82V22.0688H103.627V20.9067L103.188 22.0679H103.07L102.632 20.9067V22.0679H102.449V20.6777H102.739L103.134 21.7454ZM99.3773 10.0688H81.6054V14.6916C81.6054 14.6916 81.5513 16.4766 83.852 16.4766H94.7151C95.1412 16.4733 95.5634 16.5557 95.9543 16.7185C96.5608 16.978 97.2428 17.5063 97.2428 18.5721C97.2428 19.5285 96.7598 20.0716 96.2817 20.3756C95.8859 20.621 95.4239 20.7498 94.9527 20.7463H81.6054V22.0438H96.4884C96.4884 22.0438 99.8689 21.9122 99.8689 18.5786C99.8689 16.8835 98.8374 16.0438 97.9092 15.6323C97.3094 15.368 96.6568 15.2323 95.9968 15.2347H85.2303C85.0508 15.237 84.8736 15.1966 84.7145 15.117C84.4846 14.9975 84.2316 14.7602 84.2316 14.2931V11.3487H99.3773V10.0688ZM59.2368 20.7417V22.0392H66.7803C67.6819 22.0483 68.5566 21.7446 69.2432 21.1838C69.5974 20.8954 69.8799 20.5346 70.07 20.128C70.2602 19.7213 70.3533 19.279 70.3424 18.8334V13.3182C70.3385 13.0165 70.406 12.718 70.5399 12.4451C70.6737 12.1722 70.8704 11.932 71.1151 11.7426C71.4623 11.4818 71.8921 11.3428 72.333 11.3487H78.9096V10.0688H71.0774C71.0774 10.0688 67.6969 10.1207 67.6969 13.5517V18.7018C67.7028 19.1236 67.5843 19.5384 67.355 19.8983C67.189 20.1645 66.952 20.3832 66.6684 20.532C66.3848 20.6807 66.065 20.7541 65.742 20.7445L59.2368 20.7417ZM41.8203 10.0688V11.3487H55.2652C55.6392 11.3457 56.0092 11.4219 56.3489 11.5721C56.8821 11.8121 57.4809 12.3061 57.4809 13.308C57.4809 14.2811 56.8821 14.7676 56.3489 15.0086C56.0036 15.1607 55.6277 15.2379 55.2478 15.2347H45.2762C44.6859 15.2295 44.1025 15.3564 43.5724 15.6055C42.7427 16.0049 41.8203 16.9456 41.8203 18.497V22.0188H44.4079V18.5128C44.4062 18.2847 44.4491 18.0584 44.5344 17.8455C44.7479 17.32 45.2878 16.4766 46.5502 16.4766H56.6048C56.943 16.4784 57.2798 16.435 57.6055 16.3478C58.5289 16.0957 60.0684 15.3673 60.0684 13.308C60.0684 10.1078 56.7488 10.0688 56.7488 10.0688H41.8203Z" fill="white"/>
</svg>
