<svg width="112" height="32" viewBox="0 0 112 32" fill="none" xmlns="http://www.w3.org/2000/svg">
<path d="M69.6181 22.156L65.7627 16.9547L61.9115 22.156H60.3249L64.9599 15.8717L60.7268 10.1594H62.3134L65.7627 14.8182L69.212 10.1594H70.7975L66.5676 15.8707L71.2037 22.156H69.6181Z" fill="white"/>
<path d="M39.5753 22.1539L34.935 15.8707L39.168 10.1594H37.5814L34.1311 14.8193L30.6839 10.1594H29.1016L33.3325 15.8707L28.6933 22.1539H30.282L34.1332 16.9547L37.9876 22.1539H39.5753Z" fill="white"/>
<path d="M48.3968 16.3249C48.1461 16.1104 47.8721 15.9464 47.6056 15.8244C48.4824 15.3513 49.0568 14.4586 49.0568 13.4219C49.0568 12.6544 48.7723 10.1583 45.1337 10.1583H40.2332V15.3302H38.6011C38.3895 15.6047 37.9083 16.2639 37.7253 16.5341H40.2332V22.1539L45.1347 22.155C47.7896 22.155 49.4386 20.8155 49.4386 18.6527C49.4386 17.7085 49.0801 16.9063 48.3968 16.3249ZM41.5881 11.4106H45.1347C46.0941 11.4106 47.7018 11.6482 47.7018 13.3168C47.7018 14.5785 46.7657 15.3302 45.1347 15.3302H41.5881V11.4106ZM45.1337 20.9038H41.5871V16.5373H45.1337C46.478 16.5373 48.0869 16.9063 48.0869 18.6264C48.0869 20.6073 46.2369 20.9038 45.1337 20.9038Z" fill="white"/>
<path d="M55.8136 9.88287C52.4236 9.88287 50.0543 12.4599 50.0543 16.1503C50.0543 19.8461 52.4236 22.421 55.8136 22.421C59.2005 22.421 61.5635 19.8461 61.5635 16.1503C61.5635 12.4599 59.2005 9.88287 55.8136 9.88287ZM55.8136 21.1519C53.2306 21.1519 51.4208 19.0943 51.4208 16.1503C51.4208 13.2064 53.2306 11.1498 55.8136 11.1498C58.3924 11.1498 60.1916 13.2064 60.1916 16.1503C60.1916 19.0943 58.3924 21.1519 55.8136 21.1519Z" fill="white"/>
<path d="M8.00185 8.87563C7.99445 8.88088 7.99233 8.88404 7.99233 8.88404C6.14553 10.6967 5 13.2148 5 16C5 18.2774 5.76686 20.376 7.05624 22.0572C7.06999 22.074 7.09114 22.0835 7.11018 22.074C7.12816 22.0635 7.12922 22.0414 7.12182 22.0225C6.35496 19.6652 10.2749 13.9519 12.3005 11.5567C12.3068 11.5483 12.3153 11.5389 12.3153 11.5273C12.3153 11.5136 12.3058 11.5031 12.2963 11.4947C8.88929 8.12386 7.97964 8.89455 7.99233 8.88404" fill="white"/>
<path d="M22.1184 8.87562C22.1258 8.88087 22.1279 8.88403 22.1279 8.88403C23.9747 10.6967 25.1192 13.2148 25.1192 16C25.1192 18.2774 24.3523 20.376 23.0629 22.0572C23.0503 22.074 23.028 22.0835 23.009 22.074C22.9921 22.0635 22.991 22.0414 22.9974 22.0225C23.7642 19.6652 19.8474 13.9476 17.8229 11.5515C17.8155 11.5431 17.8081 11.5336 17.8081 11.5231C17.8081 11.5084 17.8166 11.4978 17.8272 11.4894C21.2352 8.1186 22.1385 8.89454 22.1269 8.88403" fill="white"/>
<path d="M15.0601 6C17.0899 6 18.7601 6.55304 20.3001 7.46357C20.3192 7.47303 20.3245 7.49406 20.3171 7.51298C20.3097 7.53086 20.2885 7.53506 20.2684 7.52981C18.3211 7.11134 15.3605 8.78414 15.0813 8.95132C15.0749 8.95553 15.0686 8.95973 15.0601 8.95973C15.0506 8.95973 15.0443 8.95553 15.0379 8.95132C14.2954 8.5276 11.559 7.10188 9.83597 7.54032C9.81693 7.54453 9.79577 7.54137 9.78731 7.52245C9.77991 7.50457 9.78625 7.48355 9.80423 7.47303C11.3443 6.55304 13.0356 6 15.0601 6Z" fill="white"/>
<path d="M15.0601 14.0202C15.0718 14.0202 15.0845 14.0296 15.0919 14.0359C18.1022 16.3112 23.2544 21.9363 21.6816 23.5271L21.6837 23.525L21.6826 23.5271H21.6816C19.913 25.0663 17.5955 26.001 15.0591 26.001C12.5226 26.001 10.2062 25.0663 8.43658 23.5271C6.8669 21.9363 12.0181 16.3112 15.0252 14.0359C15.0337 14.0296 15.0474 14.0202 15.0601 14.0202Z" fill="white"/>
<path d="M94.623 10.1594V20.0038L87.3278 10.152L86.1315 10.1499V22.136H87.4748V12.5093L94.6209 22.1434L95.9674 22.1455V10.1594H94.623Z" fill="white"/>
<path d="M79.1579 9.88078C75.7678 9.88078 73.3974 12.4588 73.3974 16.1483C73.3974 19.844 75.7678 22.4231 79.1579 22.4231C82.5447 22.4231 84.9077 19.844 84.9077 16.1483C84.9077 12.4599 82.5447 9.88078 79.1579 9.88078ZM79.1579 21.1519C76.5749 21.1519 74.7651 19.0943 74.7651 16.1483C74.7651 13.2054 76.5749 11.1477 79.1579 11.1477C81.7366 11.1477 83.5358 13.2054 83.5358 16.1483C83.5358 19.0943 81.7366 21.1519 79.1579 21.1519Z" fill="white"/>
<path d="M98.8265 20.9721V16.5373H105.466V15.3639H98.8265V11.3233H105.916V10.151H97.4757V22.1455H106V20.9721H98.8265Z" fill="white"/>
</svg>
