<svg width="72" height="32" viewBox="0 0 72 32" fill="none" xmlns="http://www.w3.org/2000/svg">
<g clip-path="url(#clip0_2815_121377)">
<path d="M47.6193 13.8108C47.5167 13.1866 47.0225 11.2866 44.7658 11.2866C42.2106 11.2866 41.39 13.6915 41.39 16.0046C41.39 18.3177 42.2106 20.7226 44.7658 20.7226C46.6028 20.7226 47.3209 19.4742 47.638 17.8587H52.9907C52.9907 21.3284 50.0905 25.0092 44.9056 25.0092C39.1799 25.0092 35.9254 21.0898 35.9254 16.0046C35.9254 10.589 39.4504 7 44.9056 7C49.7641 7.02754 52.4498 9.50586 52.9161 13.8108H47.6193Z" fill="white"/>
<path d="M24.4553 15.307H26.5628C27.9803 15.307 29.463 15.2152 29.463 13.4804C29.463 11.9199 28.2227 11.819 26.8799 11.819H24.4553V15.307ZM19 7.41305H28.1295C32.9413 7.41305 34.6292 10.8368 34.6292 13.2876C34.6292 17.4549 31.7477 19.4008 27.6818 19.4008H24.4553V24.5961H19V7.41305Z" fill="white"/>
</g>
<defs>
<clipPath id="clip0_2815_121377">
<rect width="72" height="32" fill="white"/>
</clipPath>
</defs>
</svg>
