<svg width="170" height="32" viewBox="0 0 170 32" fill="none" xmlns="http://www.w3.org/2000/svg">
<path d="M15.1699 14.0222C15.1812 14.0222 15.1981 14.0333 15.2038 14.0389C18.2434 16.3111 23.4526 21.9389 21.865 23.5278C20.074 25.0667 17.7349 26 15.1699 26C12.6048 26 10.2601 25.0667 8.4747 23.5278C6.88707 21.9389 12.0963 16.3111 15.136 14.0389C15.1416 14.0278 15.1586 14.0222 15.1699 14.0222ZM20.4638 7.46111C18.9044 6.55 17.2208 6 15.1642 6C13.1076 6 11.424 6.55556 9.86458 7.46111C9.84763 7.47222 9.83633 7.49444 9.84763 7.51111C9.85328 7.52778 9.87588 7.53333 9.89848 7.52778C11.8703 7.11111 14.8591 8.78333 15.1416 8.95C15.1473 8.95556 15.1529 8.95556 15.1642 8.95556C15.1755 8.95556 15.1812 8.95 15.1868 8.95C15.4693 8.78333 18.4638 7.11111 20.4299 7.52778C20.4525 7.53333 20.4695 7.52778 20.4808 7.51111C20.4921 7.49444 20.4864 7.47222 20.4638 7.46111ZM8.05096 8.86667C8.03401 8.87778 8.01706 8.88889 8.00576 8.9C6.15258 10.7111 5 13.2222 5 15.9944C5 18.2722 5.77404 20.3722 7.07917 22.0556C7.09047 22.0722 7.11307 22.0833 7.13567 22.0722C7.15262 22.0611 7.15262 22.0389 7.14697 22.0222C6.37293 19.6667 10.3335 13.95 12.3844 11.5556C12.3901 11.55 12.3957 11.5389 12.3957 11.5278C12.3957 11.5111 12.3901 11.5056 12.3788 11.4944C9.27134 8.46111 8.22045 8.78333 8.05096 8.86667ZM17.9609 11.4944C17.9496 11.5 17.944 11.5111 17.944 11.5278C17.944 11.5389 17.9496 11.55 17.9553 11.5556C20.0005 13.95 23.9668 19.6667 23.1927 22.0222C23.1871 22.0389 23.1871 22.0611 23.204 22.0722C23.221 22.0833 23.2436 22.0722 23.2605 22.0556C24.5657 20.3722 25.3397 18.2778 25.3397 15.9944C25.3397 13.2167 24.1871 10.7111 22.3339 8.9C22.3226 8.88889 22.3057 8.87222 22.2887 8.86667C22.1136 8.78333 21.0627 8.46111 17.9609 11.4944ZM40.3911 22.1611H38.3119L34.7299 17.3111L31.1478 22.1611H29.0686L33.6903 15.9056L29.4246 10.1389H31.5038L34.7242 14.4944L37.9447 10.1389H40.0238L35.7638 15.9056L40.3911 22.1611ZM51.1937 18.7444C51.1937 19.8 50.8378 20.6444 50.1372 21.25C49.4366 21.8556 48.414 22.1611 47.1032 22.1611H41.3685V16.8056H38.6453L39.7809 15.2722H41.3742V10.1389H46.8659C48.0976 10.1389 49.0524 10.4278 49.7134 11C50.3688 11.5722 50.7022 12.3389 50.7022 13.2667C50.7022 14.4222 50.1711 15.3 49.1202 15.8722C49.7982 16.1278 50.318 16.5111 50.6683 17C51.0129 17.5056 51.1937 18.0889 51.1937 18.7444ZM43.233 15.2722H46.7359C47.4422 15.2722 47.9789 15.1167 48.3292 14.8111C48.6795 14.5056 48.8603 14.0389 48.8603 13.4222C48.8603 12.8889 48.6739 12.4722 48.3123 12.1722C47.945 11.8722 47.4196 11.7222 46.7416 11.7222H43.2386V15.2722H43.233ZM49.3067 18.7056C49.3067 18.0722 49.1146 17.5944 48.7304 17.2778C48.3462 16.9611 47.7642 16.8 46.9958 16.8H43.233V20.5667H46.9958C47.7416 20.5667 48.3179 20.4056 48.7134 20.0833C49.1089 19.7722 49.3067 19.3056 49.3067 18.7056ZM63.7478 16.15C63.7478 17.0778 63.6122 17.9333 63.341 18.6833C63.0698 19.4389 62.6574 20.1111 62.115 20.6889C61.567 21.2667 60.9285 21.7056 60.211 21.9944C59.4935 22.2833 58.6799 22.4278 57.7928 22.4278C56.8945 22.4278 56.0753 22.2833 55.3577 21.9944C54.6402 21.7056 54.0017 21.2667 53.4706 20.6889C52.9226 20.1167 52.5102 19.4444 52.2333 18.6944C51.9621 17.9389 51.8209 17.0833 51.8209 16.15C51.8209 15.2222 51.9621 14.3667 52.2333 13.6111C52.5045 12.8556 52.9226 12.1778 53.4706 11.5944C54.0074 11.0222 54.6402 10.5889 55.3577 10.3C56.0753 10.0167 56.8945 9.87222 57.7928 9.87222C58.6799 9.87222 59.4935 10.0167 60.211 10.3C60.9285 10.5833 61.5726 11.0222 62.115 11.5944C62.6574 12.1778 63.0698 12.8556 63.341 13.6111C63.6122 14.3667 63.7478 15.2222 63.7478 16.15ZM53.7531 16.15C53.7531 17.5667 54.126 18.7 54.8605 19.5222C55.5837 20.3556 56.5724 20.7778 57.7928 20.7778C59.0132 20.7778 60.0019 20.3556 60.7251 19.5222C61.4483 18.7111 61.8156 17.5778 61.8156 16.15C61.8156 14.7222 61.4483 13.5833 60.7251 12.7611C59.9906 11.9389 59.0019 11.5222 57.7928 11.5222C56.5837 11.5222 55.595 11.9389 54.8605 12.7611C54.126 13.6056 53.7531 14.7444 53.7531 16.15ZM69.6463 15.9056L73.9064 10.1389H71.8272L68.6068 14.4944L65.3863 10.1389H63.3071L67.5672 15.9056L62.9455 22.1611H65.0247L68.6068 17.3111L72.1888 22.1611H74.268L69.6463 15.9056ZM89.8166 11.7889V15.2722H95.8902V16.8056H89.8166V20.5056H96.6812V22.1556H87.9464V10.1389H96.6812V11.7889H89.8166ZM85.5226 16.5889C84.9124 16.0389 83.9011 15.6111 82.5112 15.3222L81.449 15.1056C80.4433 14.8944 79.7428 14.6333 79.3699 14.3333C78.997 14.0556 78.8105 13.6444 78.8105 13.1C78.8105 12.5722 79.0196 12.1556 79.4377 11.8667C79.8558 11.5778 80.4659 11.4333 81.2569 11.4333C82.2739 11.4333 83.0254 11.6167 83.4773 11.9778C83.935 12.3389 84.1949 12.9056 84.2514 13.6722V13.6889H86.0989V13.6722C86.0763 12.4944 85.6582 11.5556 84.8503 10.8833C84.048 10.2111 82.8276 9.86667 81.2343 9.86667C79.9123 9.86667 78.8501 10.1667 78.076 10.7556C77.2963 11.3444 76.9065 12.1444 76.9065 13.1333C76.9065 14.1222 77.2285 14.9056 77.8726 15.4722C78.5111 16.0333 79.4716 16.4444 80.7202 16.6889L81.7654 16.9056C82.7994 17.1278 83.5226 17.3833 83.918 17.6667C84.3135 17.95 84.5113 18.3556 84.5113 18.8722C84.5113 19.5167 84.2683 20.0111 83.7937 20.35C83.3135 20.6889 82.6186 20.8611 81.7259 20.8611C80.6467 20.8611 79.8219 20.6333 79.2738 20.1944C78.7258 19.75 78.4433 19.0778 78.4263 18.1889V18.1722H76.5562V18.1889C76.5675 19.5667 77.0251 20.6333 77.9235 21.35C78.8162 22.0667 80.0874 22.4333 81.692 22.4333C83.1723 22.4333 84.3474 22.1111 85.1893 21.4722C86.0311 20.8333 86.4549 19.9444 86.4549 18.8333C86.4436 17.8944 86.1328 17.1444 85.5226 16.5889ZM107.919 20.6778L107.8 18.8111C107.778 18.15 107.625 17.6111 107.354 17.2111C107.088 16.8222 106.665 16.5389 106.1 16.3722C106.727 16.1667 107.218 15.8167 107.569 15.3333C107.93 14.8333 108.111 14.2111 108.111 13.4778C108.111 12.4444 107.732 11.6222 106.981 11.0333C106.235 10.4444 105.196 10.1444 103.896 10.1444H98.5513V22.1667H100.421V17.2333H103.947C104.648 17.2333 105.162 17.3944 105.472 17.7056C105.789 18.0222 105.964 18.5667 105.998 19.3333L106.049 20.6111C106.06 21.3056 106.184 21.8278 106.41 22.15L106.416 22.1556H108.343L108.326 22.1278C108.111 21.7778 107.975 21.2889 107.919 20.6778ZM100.421 11.7222H103.794C104.563 11.7222 105.162 11.8833 105.574 12.2056C105.987 12.5278 106.19 13.0111 106.19 13.6389C106.19 14.2944 105.987 14.8056 105.585 15.1556C105.184 15.5111 104.631 15.6889 103.93 15.6889H100.421V11.7222ZM109.795 22.1611H111.665V10.1389H109.795V22.1611ZM122.258 11.7889V10.1389H113.524V22.1611H122.258V20.5111H115.394V16.8056H121.467V15.2722H115.394V11.7889H122.258ZM132.214 16.5889C131.603 16.0389 130.592 15.6111 129.202 15.3222L128.14 15.1056C127.134 14.8944 126.434 14.6333 126.061 14.3333C125.688 14.0556 125.501 13.6444 125.501 13.1C125.501 12.5722 125.71 12.1556 126.129 11.8667C126.547 11.5778 127.157 11.4333 127.948 11.4333C128.965 11.4333 129.716 11.6167 130.168 11.9778C130.626 12.3389 130.886 12.9056 130.942 13.6722V13.6889H132.79V13.6722C132.767 12.4944 132.349 11.5556 131.541 10.8833C130.739 10.2111 129.519 9.86667 127.925 9.86667C126.603 9.86667 125.541 10.1667 124.767 10.7556C123.987 11.3444 123.597 12.1444 123.597 13.1333C123.597 14.1222 123.919 14.9056 124.564 15.4722C125.202 16.0333 126.162 16.4444 127.411 16.6889L128.456 16.9056C129.49 17.1278 130.213 17.3833 130.609 17.6667C131.004 17.95 131.202 18.3556 131.202 18.8722C131.202 19.5167 130.959 20.0111 130.485 20.35C130.004 20.6889 129.309 20.8611 128.417 20.8611C127.338 20.8611 126.513 20.6333 125.965 20.1944C125.417 19.75 125.134 19.0778 125.117 18.1889V18.1722H123.247V18.1889C123.258 19.5667 123.716 20.6333 124.614 21.35C125.507 22.0667 126.778 22.4333 128.383 22.4333C129.863 22.4333 131.038 22.1111 131.88 21.4722C132.722 20.8333 133.146 19.9444 133.146 18.8333C133.134 17.8944 132.824 17.1444 132.214 16.5889ZM152.096 8.63889H151.163V23.6667H152.096V8.63889ZM143.547 15.9056L147.807 10.1389H145.728L142.508 14.4944L139.287 10.1389H137.208L141.468 15.9056L136.841 22.1611H138.92L142.502 17.3111L146.084 22.1611H148.163L143.547 15.9056ZM164.068 16.5889C163.458 16.0389 162.446 15.6111 161.056 15.3222L159.994 15.1056C158.988 14.8944 158.288 14.6333 157.915 14.3333C157.542 14.0556 157.356 13.6444 157.356 13.1C157.356 12.5722 157.565 12.1556 157.983 11.8667C158.401 11.5778 159.011 11.4333 159.802 11.4333C160.819 11.4333 161.57 11.6167 162.022 11.9778C162.48 12.3389 162.74 12.9056 162.797 13.6722V13.6889H164.644V13.6722C164.621 12.4944 164.203 11.5556 163.395 10.8833C162.593 10.2111 161.373 9.86667 159.779 9.86667C158.457 9.86667 157.395 10.1667 156.621 10.7556C155.841 11.3444 155.452 12.1444 155.452 13.1333C155.452 14.1222 155.774 14.9056 156.418 15.4722C157.056 16.0333 158.017 16.4444 159.265 16.6889L160.311 16.9056C161.344 17.1278 162.068 17.3833 162.463 17.6667C162.859 17.95 163.056 18.3556 163.056 18.8722C163.056 19.5167 162.813 20.0111 162.339 20.35C161.859 20.6889 161.164 20.8611 160.271 20.8611C159.192 20.8611 158.367 20.6333 157.819 20.1944C157.271 19.75 156.988 19.0778 156.971 18.1889V18.1722H155.101V18.1889C155.113 19.5667 155.57 20.6333 156.469 21.35C157.361 22.0667 158.633 22.4333 160.237 22.4333C161.717 22.4333 162.893 22.1111 163.734 21.4722C164.576 20.8333 165 19.9444 165 18.8333C164.989 17.8944 164.678 17.1444 164.068 16.5889Z" fill="white"/>
</svg>
